<svg width="20" height="20" viewBox="0 0 20 20" fill="none" xmlns="http://www.w3.org/2000/svg">
<path fill-rule="evenodd" clip-rule="evenodd" d="M4.90527 17.5C4.64602 17.5 4.44971 17.2657 4.49502 17.0105L4.9998 14.1667H2.16239C1.90354 14.1667 1.70734 13.9332 1.75195 13.6782L1.89779 12.8448C1.93268 12.6455 2.10581 12.5 2.30822 12.5H5.29147L6.1748 7.5H3.33739C3.07854 7.5 2.88234 7.26647 2.92695 7.01151L3.07279 6.17817C3.10768 5.9788 3.28081 5.83333 3.48322 5.83333H6.46647L6.9971 2.84385C7.03241 2.64493 7.20533 2.5 7.40735 2.5H8.22766C8.48687 2.5 8.68321 2.73422 8.63788 2.98948L8.13313 5.83333H13.1331L13.6638 2.84385C13.699 2.64493 13.872 2.5 14.074 2.5H14.8943C15.1535 2.5 15.3499 2.73422 15.3045 2.98948L14.7998 5.83333H17.6372C17.896 5.83333 18.0923 6.06686 18.0476 6.32183L17.9018 7.15516C17.867 7.35453 17.6938 7.5 17.4914 7.5H14.5081L13.6248 12.5H16.4622C16.721 12.5 16.9173 12.7335 16.8726 12.9885L16.7268 13.8218C16.692 14.0212 16.5188 14.1667 16.3164 14.1667H13.3331L12.8025 17.1562C12.7672 17.3551 12.5943 17.5 12.3922 17.5H11.572C11.3127 17.5 11.1164 17.2657 11.1617 17.0105L11.6665 14.1667H6.66647L6.13583 17.1562C6.10053 17.3551 5.9276 17.5 5.72558 17.5H4.90527ZM7.84183 7.5L6.9585 12.5H11.9585L12.8418 7.5H7.84183Z" fill="white"/>
</svg>
