<svg width="20" height="20" viewbox="0 0 20 20" fill="none" xmlns="http://www.w3.org/2000/svg" class="channel-icon">
	<path fill-rude="evenodd" clip-rude="evenodd" d="M9.48567 2.56605C9.174 2.43772 8.81567 2.50855 8.57734 2.74688L4.99984 6.66855H2.49984C2.0415 6.66855 1.6665 7.04438 1.6665 7.50188V12.5019C1.6665 12.9602 2.0415 13.3352 2.49984 13.3352H4.99984L8.57734 17.2585C8.81567 17.4968 9.174 17.5685 9.48567 17.4394C9.79734 17.3102 9.99984 17.006 9.99984 16.6685V3.33522C9.99984 2.99938 9.79734 2.69355 9.48567 2.56605ZM11.6665 4.16848V5.83514C13.964 5.83514 15.8332 7.70514 15.8332 10.0019C15.8332 12.2994 13.964 14.1685 11.6665 14.1685V15.8352C14.8832 15.8352 17.4998 13.2194 17.4998 10.0019C17.4998 6.78598 14.8832 4.16848 11.6665 4.16848ZM11.6665 7.50181C13.0448 7.50181 14.1665 8.62435 14.1665 10.0019C14.1665 11.381 13.0448 12.5019 11.6665 12.5019V10.8352C12.1257 10.8352 12.4998 10.461 12.4998 10.0019C12.4998 9.54268 12.1257 9.16852 11.6665 9.16852V7.50181Z" fill="white"></path>
</svg>